<svg width="28" height="28" viewBox="0 0 28 28" fill="none" xmlns="http://www.w3.org/2000/svg">
<path d="M26.8334 4.66667V11.6667H19.8334" stroke="black" stroke-width="2" stroke-linecap="round" stroke-linejoin="round"/>
<path d="M1.16663 23.3333V16.3333H8.16663" stroke="black" stroke-width="2" stroke-linecap="round" stroke-linejoin="round"/>
<path d="M4.09496 10.5C4.68665 8.82792 5.69228 7.33297 7.018 6.15466C8.34373 4.97634 9.94633 4.15306 11.6763 3.76164C13.4062 3.37021 15.2072 3.4234 16.911 3.91624C18.6149 4.40908 20.1661 5.3255 21.42 6.58L26.8333 11.6667M1.16663 16.3333L6.57996 21.42C7.83383 22.6745 9.38506 23.5909 11.0889 24.0838C12.7927 24.5766 14.5937 24.6298 16.3236 24.2384C18.0536 23.8469 19.6562 23.0237 20.9819 21.8453C22.3076 20.667 23.3133 19.1721 23.905 17.5" stroke="black" stroke-width="2" stroke-linecap="round" stroke-linejoin="round"/>
</svg>
