<svg width="28" height="28" viewBox="0 0 28 28" fill="none" xmlns="http://www.w3.org/2000/svg">
<path d="M17.15 7.35C16.9362 7.56809 16.8165 7.86129 16.8165 8.16667C16.8165 8.47205 16.9362 8.76525 17.15 8.98334L19.0166 10.85C19.2347 11.0638 19.5279 11.1835 19.8333 11.1835C20.1387 11.1835 20.4319 11.0638 20.65 10.85L25.0483 6.45167C25.6349 7.74806 25.8126 9.19244 25.5575 10.5923C25.3024 11.9922 24.6268 13.2812 23.6206 14.2873C22.6144 15.2935 21.3255 15.9691 19.9256 16.2242C18.5257 16.4793 17.0813 16.3016 15.785 15.715L7.72329 23.7767C7.25916 24.2408 6.62966 24.5015 5.97329 24.5015C5.31691 24.5015 4.68742 24.2408 4.22329 23.7767C3.75916 23.3125 3.49841 22.683 3.49841 22.0267C3.49841 21.3703 3.75916 20.7408 4.22329 20.2767L12.285 12.215C11.6983 10.9186 11.5207 9.47423 11.7758 8.07433C12.0308 6.67444 12.7065 5.38552 13.7126 4.37934C14.7188 3.37317 16.0077 2.69753 17.4076 2.44247C18.8075 2.1874 20.2519 2.36503 21.5483 2.95167L17.1616 7.33834L17.15 7.35Z" stroke="black" stroke-width="2" stroke-linecap="round" stroke-linejoin="round"/>
</svg>
