<svg width="16" height="15" viewBox="0 0 16 15" fill="none" xmlns="http://www.w3.org/2000/svg">
<path d="M7.09388 0.999413C7.32555 0.286399 8.33428 0.286398 8.56595 0.999412L9.74121 4.61649C9.84482 4.93536 10.142 5.15125 10.4772 5.15125H14.2805C15.0302 5.15125 15.3419 6.11061 14.7354 6.55128L11.6585 8.78676C11.3872 8.98383 11.2737 9.33315 11.3774 9.65202L12.5526 13.2691C12.7843 13.9821 11.9682 14.575 11.3617 14.1344L8.28481 11.8989C8.01357 11.7018 7.64627 11.7018 7.37502 11.8989L4.29815 14.1344C3.69162 14.575 2.87555 13.9821 3.10722 13.2691L4.28248 9.65202C4.38609 9.33315 4.27259 8.98383 4.00134 8.78676L0.924468 6.55128C0.317943 6.11061 0.629655 5.15125 1.37936 5.15125H5.18259C5.51787 5.15125 5.81501 4.93536 5.91862 4.61649L7.09388 0.999413Z" fill="#FDD609"/>
</svg>
