<svg width="29" height="30" viewBox="0 0 29 30" fill="none" xmlns="http://www.w3.org/2000/svg">
<g clip-path="url(#clip0_2_515)">
<path d="M5.22368 0.656738C2.32999 0.656738 0 2.98673 0 5.88042V24.0412C0 26.9349 2.32999 29.2649 5.22368 29.2649H15.0667V18.0809H12.1093V14.0543H15.0667V10.6142C15.0667 7.91142 16.814 5.42984 20.8393 5.42984C22.469 5.42984 23.6742 5.5863 23.6742 5.5863L23.5794 9.34649C23.5794 9.34649 22.3503 9.33488 21.0091 9.33488C19.5576 9.33488 19.3248 10.0037 19.3248 11.114V14.0543H23.6947L23.5043 18.0809H19.3248V29.2649H23.3845C26.2782 29.2649 28.6082 26.935 28.6082 24.0413V5.88044C28.6082 2.98676 26.2782 0.656767 23.3845 0.656767H5.22365L5.22368 0.656738Z" fill="white"/>
</g>
<defs>
<clipPath id="clip0_2_515">
<rect width="28.6082" height="28.6082" fill="white" transform="translate(0 0.656738)"/>
</clipPath>
</defs>
</svg>
