<svg width="39" height="38" viewBox="0 0 39 38" fill="none" xmlns="http://www.w3.org/2000/svg">
<path d="M19.1286 14.0246C16.4103 14.0246 14.192 16.2429 14.192 18.9612C14.192 21.6794 16.4103 23.8977 19.1286 23.8977C21.8469 23.8977 24.0652 21.6794 24.0652 18.9612C24.0652 16.2429 21.8469 14.0246 19.1286 14.0246ZM33.9346 18.9612C33.9346 16.9169 33.9532 14.8912 33.8384 12.8506C33.7236 10.4805 33.1829 8.37695 31.4497 6.64377C29.7128 4.9069 27.613 4.36991 25.2429 4.2551C23.1986 4.1403 21.1729 4.15882 19.1323 4.15882C17.088 4.15882 15.0623 4.1403 13.0218 4.2551C10.6516 4.36991 8.54809 4.9106 6.81492 6.64377C5.07804 8.38065 4.54105 10.4805 4.42625 12.8506C4.31144 14.8949 4.32996 16.9206 4.32996 18.9612C4.32996 21.0017 4.31144 23.0312 4.42625 25.0717C4.54105 27.4419 5.08174 29.5454 6.81492 31.2785C8.55179 33.0154 10.6516 33.5524 13.0218 33.6672C15.066 33.782 17.0917 33.7635 19.1323 33.7635C21.1766 33.7635 23.2023 33.782 25.2429 33.6672C27.613 33.5524 29.7165 33.0117 31.4497 31.2785C33.1866 29.5417 33.7236 27.4419 33.8384 25.0717C33.9569 23.0312 33.9346 21.0054 33.9346 18.9612ZM19.1286 26.5568C14.9253 26.5568 11.533 23.1645 11.533 18.9612C11.533 14.7578 14.9253 11.3656 19.1286 11.3656C23.3319 11.3656 26.7242 14.7578 26.7242 18.9612C26.7242 23.1645 23.3319 26.5568 19.1286 26.5568ZM27.0353 12.8284C26.0539 12.8284 25.2614 12.0359 25.2614 11.0545C25.2614 10.0731 26.0539 9.28057 27.0353 9.28057C28.0167 9.28057 28.8092 10.0731 28.8092 11.0545C28.8095 11.2875 28.7638 11.5183 28.6748 11.7337C28.5857 11.949 28.4551 12.1447 28.2903 12.3095C28.1255 12.4743 27.9298 12.6049 27.7145 12.694C27.4991 12.783 27.2683 12.8287 27.0353 12.8284Z" fill="white"/>
</svg>
