<svg width="31" height="34" viewBox="0 0 31 34" fill="none" xmlns="http://www.w3.org/2000/svg">
<g clip-path="url(#clip0_2_517)">
<path d="M27.6453 2.07446H4.12203C2.3511 2.07446 0.914307 3.47135 0.914307 5.19308V28.063C0.914307 29.7847 2.3511 31.1816 4.12203 31.1816H27.6453C29.4163 31.1816 30.8531 29.7847 30.8531 28.063V5.19308C30.8531 3.47135 29.4163 2.07446 27.6453 2.07446ZM24.3775 12.3919C24.3908 12.5738 24.3908 12.7622 24.3908 12.9442C24.3908 18.5772 19.9802 25.0678 11.9208 25.0678C9.43483 25.0678 7.12927 24.3661 5.19127 23.1576C5.54546 23.1966 5.88628 23.2096 6.24715 23.2096C8.29876 23.2096 10.1833 22.5339 11.6869 21.3904C9.76228 21.3514 8.14505 20.1235 7.59038 18.4342C8.26534 18.5317 8.87347 18.5317 9.56848 18.3563C7.56365 17.9599 6.06003 16.2447 6.06003 14.1721V14.1201C6.64143 14.4385 7.32307 14.6334 8.03813 14.6594C7.43697 14.2706 6.94415 13.7432 6.60365 13.1242C6.26316 12.5052 6.08558 11.8139 6.08676 11.112C6.08676 10.3193 6.30061 9.59164 6.68153 8.96142C8.84006 11.5473 12.0812 13.2365 15.7166 13.4184C15.0951 10.5272 17.3205 8.18176 19.9936 8.18176C21.2566 8.18176 22.3927 8.69504 23.1946 9.52667C24.1837 9.34475 25.1326 8.98741 25.9747 8.50012C25.6472 9.48769 24.9589 10.3193 24.05 10.8456C24.9321 10.7546 25.7875 10.5142 26.5761 10.1829C25.9813 11.034 25.2329 11.7877 24.3775 12.3919Z" fill="white"/>
</g>
<defs>
<clipPath id="clip0_2_517">
<rect width="29.9388" height="33.2653" fill="white" transform="translate(0.914307 -0.00463867)"/>
</clipPath>
</defs>
</svg>
